<svg version="1.1" viewBox="0.0 0.0 960.0 540.0" fill="none" stroke="none" stroke-linecap="square" stroke-miterlimit="10" xmlns:xlink="http://www.w3.org/1999/xlink" xmlns="http://www.w3.org/2000/svg"><clipPath id="gc6f80d1ff_0_23.0"><path d="m0 0l960.0 0l0 540.0l-960.0 0l0 -540.0z" clip-rule="nonzero"/></clipPath><g clip-path="url(#gc6f80d1ff_0_23.0)"><path fill="#ffffff" d="m0 0l960.0 0l0 540.0l-960.0 0z" fill-rule="evenodd"/><path fill="#000000" fill-opacity="0.0" d="m0.005249344 147.64305l960.0 0l0 221.41731l-960.0 0z" fill-rule="evenodd"/><path fill="#424242" d="m104.53705 206.0085q-15.65625 -6.03125 -29.515625 -6.03125q-13.84375 0 -21.578125 5.859375q-7.734375 5.84375 -7.734375 16.15625q0 12.5625 13.0625 19.4375q5.859375 2.9375 12.8125 5.4375q6.96875 2.484375 14.015625 5.578125q7.0625 3.09375 12.90625 7.0468597q5.859375 3.953125 9.46875 10.921875q3.609375 6.96875 3.609375 17.71875q0 10.75 -6.03125 18.328125q-6.015625 7.5625 -14.53125 10.234375q-8.515625 2.65625 -19.859375 2.65625q-21.15625 0 -36.125 -10.484375l0.859375 -1.390625q5.6875 4.484375 14.703125 7.328125q9.03125 2.828125 18.5 2.828125q13.9375 0 23.8125 -6.453125q9.890625 -6.453125 9.890625 -19.0q0 -13.765625 -13.0625 -21.5q-5.84375 -3.4375 -12.8125 -6.359375q-6.96875 -2.9375 -14.03125 -6.109375q-7.046875 -3.1874847 -12.890625 -7.1406097q-13.078125 -8.609375 -13.078125 -24.421875q0 -12.5625 8.421875 -20.390625q8.4375 -7.828125 25.375 -7.828125q16.953125 0 34.5 5.859375l-0.6875 1.71875zm90.98622 113.17186q-11.703125 0 -16.0 -4.46875q-3.953125 -3.78125 -3.953125 -6.546875l0 -3.609375q-8.4375 15.3125 -27.015625 15.3125q-21.671875 0 -24.59375 -19.609375q-0.34375 -2.0625 -0.34375 -4.203125q0 -2.15625 0.6875 -4.734375q0.6875 -2.578125 3.953125 -5.6875q6.546875 -6.1875 28.734375 -7.5625q5.5 -0.515625 10.140625 -0.515625q4.65625 0 8.4375 0.34375l0 -28.54686q-0.34375 -0.171875 0 -1.625q0.34375 -1.46875 -0.609375 -3.796875q-0.9375 -2.328125 -2.5 -4.5625q-1.546875 -2.234375 -5.5 -3.859375q-3.953125 -1.640625 -10.3125 -1.640625q-6.359375 0 -14.875 2.328125q-8.515625 2.3125 -12.46875 4.546875l-0.6875 -1.203125q15.296875 -7.046875 31.125 -7.046875q17.71875 0 23.390625 6.359375q4.46875 4.984375 4.46875 10.5l0 57.60936q0 5.0 1.96875 7.671875q1.984375 2.65625 4.0625 2.828125l1.890625 0.34375l5.328125 0l0 1.375l-5.328125 0zm-44.203125 -0.6875q9.109375 0 16.421875 -6.28125q7.3125 -6.28125 7.828125 -12.125l0 -20.8125q-4.65625 -0.34375 -9.390625 -0.34375q-4.71875 0 -9.359375 0.515625q-13.078125 1.546875 -17.03125 5.859375q-3.953125 4.296875 -3.953125 11.859375q0 1.375 0.171875 3.09375q1.546875 18.234375 15.3125 18.234375zm58.124832 -39.21875q0 -22.359375 10.828125 -34.562485q10.84375 -12.21875 32.515625 -12.21875q16.0 0 32.515625 5.671875l0 83.07811q-0.171875 40.9375 -35.78125 40.9375q-19.609375 0 -33.53125 -12.734375l1.203125 -1.03125q14.78125 12.390625 32.328125 12.390625q23.734375 0 23.734375 -39.5625l0 -17.03125q-3.265625 6.03125 -10.84375 10.671875q-7.5625 4.640625 -17.875 4.640625q-35.09375 -0.859375 -35.09375 -40.25zm35.265625 38.875q11.515625 0 19.765625 -6.1875q8.265625 -6.203125 8.78125 -12.21875l0 -60.718735q-12.375 -5.15625 -20.984375 -5.15625q-15.296875 0 -23.046875 11.953125q-7.734375 11.95311 -7.734375 33.45311q0 38.875 23.21875 38.875zm124.53259 1.03125q-11.703125 0 -16.0 -4.46875q-3.953125 -3.78125 -3.953125 -6.546875l0 -3.609375q-8.4375 15.3125 -27.015625 15.3125q-21.671875 0 -24.59375 -19.609375q-0.34375 -2.0625 -0.34375 -4.203125q0 -2.15625 0.6875 -4.734375q0.6875 -2.578125 3.953125 -5.6875q6.546875 -6.1875 28.734375 -7.5625q5.5 -0.515625 10.140625 -0.515625q4.65625 0 8.4375 0.34375l0 -28.54686q-0.34375 -0.171875 0 -1.625q0.34375 -1.46875 -0.609375 -3.796875q-0.9375 -2.328125 -2.5 -4.5625q-1.546875 -2.234375 -5.5 -3.859375q-3.953125 -1.640625 -10.3125 -1.640625q-6.359375 0 -14.875 2.328125q-8.515625 2.3125 -12.46875 4.546875l-0.6875 -1.203125q15.296875 -7.046875 31.125 -7.046875q17.71875 0 23.390625 6.359375q4.46875 4.984375 4.46875 10.5l0 57.60936q0 5.0 1.96875 7.671875q1.984375 2.65625 4.0625 2.828125l1.890625 0.34375l5.328125 0l0 1.375l-5.328125 0zm-44.203125 -0.6875q9.109375 0 16.421875 -6.28125q7.3125 -6.28125 7.828125 -12.125l0 -20.8125q-4.65625 -0.34375 -9.390625 -0.34375q-4.71875 0 -9.359375 0.515625q-13.078125 1.546875 -17.03125 5.859375q-3.953125 4.296875 -3.953125 11.859375q0 1.375 0.171875 3.09375q1.546875 18.234375 15.3125 18.234375zm91.8436 -77.92186l0 -3.609375q-7.75 3.09375 -14.109375 12.46875q-6.359375 9.374985 -6.703125 17.64061l0 52.109375l-12.046875 0l0 -85.999985l12.046875 0l0 27.343735q2.75 -9.968735 10.484375 -18.82811q7.75 -8.859375 17.546875 -9.203125l0.6875 0q3.4375 0 5.765625 2.328125q2.328125 2.3125 2.328125 5.765625q0 3.4375 -2.328125 5.671875q-2.328125 2.234375 -5.765625 2.234375q-3.4375 0 -5.671875 -2.234375q-2.234375 -2.234375 -2.234375 -5.6875zm99.75409 -41.796875l0 76.031235l55.5625 -76.031235l1.375 1.203125l-30.796875 41.96875l45.765625 77.23436l-16.0 0l-38.53125 -65.187485l-17.375 23.906235l0 41.28125l-14.265625 0l0 -120.406235l14.265625 0zm156.18445 120.406235q-7.0625 0 -10.765625 -3.09375q-3.6875 -3.09375 -3.859375 -6.1875l-0.171875 -2.9375l0 -53.999985q0 -13.59375 -7.21875 -17.375q-3.453125 -1.71875 -8.78125 -1.71875q-10.65625 0 -19.171875 8.6875q-8.515625 8.6875 -8.515625 15.562485l0 61.0625l-12.046875 0l0 -128.82811l12.046875 0l0 62.4375q2.75 -7.390625 10.484375 -13.84375q7.75 -6.453125 17.375 -6.453125q16.6875 0 22.28125 5.765625q5.59375 5.765625 5.59375 14.875l0 53.82811q0 5.0 1.96875 7.671875q1.984375 2.65625 3.875 2.828125l2.0625 0.34375l5.328125 0l0 1.375l-10.484375 0zm90.98883 0q-11.703125 0 -16.0 -4.46875q-3.953125 -3.78125 -3.953125 -6.546875l0 -3.609375q-8.4375 15.3125 -27.015625 15.3125q-21.671875 0 -24.59375 -19.609375q-0.34375 -2.0625 -0.34375 -4.203125q0 -2.15625 0.6875 -4.734375q0.6875 -2.578125 3.953125 -5.6875q6.546875 -6.1875 28.734375 -7.5625q5.5 -0.515625 10.140625 -0.515625q4.65625 0 8.4375 0.34375l0 -28.54686q-0.34375 -0.171875 0 -1.625q0.34375 -1.46875 -0.609375 -3.796875q-0.9375 -2.328125 -2.5 -4.5625q-1.546875 -2.234375 -5.5 -3.859375q-3.953125 -1.640625 -10.3125 -1.640625q-6.359375 0 -14.875 2.328125q-8.515625 2.3125 -12.46875 4.546875l-0.6875 -1.203125q15.296875 -7.046875 31.125 -7.046875q17.71875 0 23.390625 6.359375q4.46875 4.984375 4.46875 10.5l0 57.60936q0 5.0 1.96875 7.671875q1.984375 2.65625 4.0625 2.828125l1.890625 0.34375l5.328125 0l0 1.375l-5.328125 0zm-44.203125 -0.6875q9.109375 0 16.421875 -6.28125q7.3125 -6.28125 7.828125 -12.125l0 -20.8125q-4.65625 -0.34375 -9.390625 -0.34375q-4.71875 0 -9.359375 0.515625q-13.078125 1.546875 -17.03125 5.859375q-3.953125 4.296875 -3.953125 11.859375q0 1.375 0.171875 3.09375q1.546875 18.234375 15.3125 18.234375zm61.56482 -83.937485l0 -1.375l3.609375 0l0 -17.203125l12.046875 0l0 17.203125l26.3125 0l0 1.375l-26.3125 0l0 62.60936q0 11.171875 2.484375 16.171875q2.5 4.984375 10.5 4.984375q8.0 0 16.25 -3.265625l0.515625 1.375q-8.59375 3.265625 -19.6875 3.265625q-11.09375 0 -16.609375 -4.546875q-5.5 -4.5625 -5.5 -18.15625l0 -62.437485l-3.609375 0zm86.006714 6.015625l0 -3.609375q-7.75 3.09375 -14.109375 12.46875q-6.359375 9.374985 -6.703125 17.64061l0 52.109375l-12.046875 0l0 -85.999985l12.046875 0l0 27.343735q2.75 -9.968735 10.484375 -18.82811q7.75 -8.859375 17.546875 -9.203125l0.6875 0q3.4375 0 5.765625 2.328125q2.328125 2.3125 2.328125 5.765625q0 3.4375 -2.328125 5.671875q-2.328125 2.234375 -5.765625 2.234375q-3.4375 0 -5.671875 -2.234375q-2.234375 -2.234375 -2.234375 -5.6875zm46.435486 78.60936q-7.046875 0 -10.75 -3.09375q-3.703125 -3.09375 -3.875 -6.1875l-0.171875 -2.9375l0 -73.781235l12.046875 0l0 73.781235q0 5.0 1.96875 7.671875q1.984375 2.65625 3.875 2.828125l2.0625 0.34375l5.34375 0l0 1.375l-10.5 0zm-13.765625 -105.26561q-2.0625 -2.0625 -2.0625 -5.15625q0 -3.09375 2.0625 -5.234375q2.078125 -2.15625 5.171875 -2.15625q3.09375 0 5.234375 2.15625q2.15625 2.140625 2.15625 5.234375q0 3.09375 -2.15625 5.15625q-2.140625 2.0625 -5.234375 2.0625q-3.09375 0 -5.171875 -2.0625z" fill-rule="nonzero"/></g></svg>