<svg version="1.1" viewBox="0.0 0.0 960.0 540.0" fill="none" stroke="none" stroke-linecap="square" stroke-miterlimit="10" xmlns:xlink="http://www.w3.org/1999/xlink" xmlns="http://www.w3.org/2000/svg"><clipPath id="gba934ff01b_0_2.0"><path d="m0 0l960.0 0l0 540.0l-960.0 0l0 -540.0z" clip-rule="nonzero"/></clipPath><g clip-path="url(#gba934ff01b_0_2.0)"><path fill="#ffffff" d="m0 0l960.0 0l0 540.0l-960.0 0z" fill-rule="evenodd"/><path fill="#000000" fill-opacity="0.0" d="m-15.994751 147.64305l960.0 0l0 221.41731l-960.0 0z" fill-rule="evenodd"/><path fill="#424242" d="m147.6532 187.25224l0 -4.90625q0 -4.40625 -3.4375 -6.859375q-7.109375 -6.625 -18.890625 -6.625q-16.1875 0 -23.546875 11.28125q-4.421875 6.625 -4.421875 12.390625q0 5.765625 2.828125 12.390625q2.828125 6.625 15.953125 22.8125q13.125 16.1875 16.3125 24.53125q3.1875 8.343735 3.1875 13.98436q0 15.703125 -12.765625 27.484375q-8.09375 7.59375 -19.015625 11.890625q-10.90625 4.296875 -23.921875 4.296875q-13.0 0 -26.0 -6.625q-13.0 -6.625 -16.1875 -20.125q-0.484375 -2.6875 -0.484375 -6.984375q0 -4.296875 2.8125 -11.890625q2.828125 -7.609375 8.953125 -12.281235q0.25 -0.234375 0.984375 0.5q1.46875 1.21875 0.484375 2.203125q-4.65625 5.4062347 -4.65625 12.26561q0 9.078125 5.640625 17.421875q5.640625 7.84375 15.703125 13.0q11.046875 5.640625 22.8125 5.640625q17.421875 0 25.765625 -12.75q4.65625 -7.609375 4.65625 -15.828125q0 -8.21875 -2.953125 -16.4375q-2.9375 -8.218735 -12.140625 -23.54686q-9.1875 -15.34375 -10.171875 -17.046875q-4.90625 -9.328125 -4.90625 -18.53125q0 -9.203125 5.765625 -17.296875q5.765625 -8.09375 14.84375 -12.75q10.0625 -5.15625 20.859375 -5.15625q15.203125 0 24.765625 10.546875q1.234375 2.203125 1.234375 6.265625q0 4.046875 -1.71875 6.984375q-6.375 9.328125 -8.09375 15.453125q-3.4375 2.21875 -4.671875 0.734375q4.421875 -8.828125 4.421875 -16.4375zm76.049255 78.01561q0.5 0.5 0.5 1.96875q0 1.46875 -3.4375 6.125q-21.84375 28.953125 -40.484375 28.953125q-5.890625 0 -5.890625 -4.65625q0 -8.59375 9.578125 -23.5625q-8.59375 9.078125 -19.640625 18.53125q-11.03125 9.4375 -20.59375 9.4375q-4.421875 0 -4.421875 -5.390625q0 -1.234375 0.25 -1.71875q1.71875 -13.984375 11.28125 -29.4375q19.140625 -30.906235 39.75 -30.906235l28.203125 0q1.234375 0 1.234375 0.96875q0 1.96875 -2.21875 1.96875q-3.421875 0 -8.578125 7.984375q-5.15625 7.96875 -13.625 24.531235q-8.453125 16.546875 -8.453125 20.84375q0 4.296875 3.4375 4.296875q5.640625 0 15.6875 -9.8125q5.40625 -5.640625 8.09375 -8.828125q2.703125 -3.203125 3.5625 -4.171875q0.859375 -0.984375 5.765625 -7.125zm-26.25 -22.812485q0 -4.65625 -6.265625 -4.65625q-6.25 0 -13.859375 7.109375q-7.59375 7.109375 -16.546875 22.937485q-8.953125 15.828125 -8.953125 22.9375q0 2.953125 1.953125 2.953125q7.125 0 25.390625 -21.71875q18.28125 -21.718735 18.28125 -29.562485zm-52.24852 106.468735l-0.5 6.140625q0 11.03125 7.0 17.046875q6.984375 6.015625 16.921875 6.015625q9.9375 0 17.921875 -3.3125q7.96875 -3.3125 14.109375 -7.25q6.125 -3.921875 11.765625 -10.0625q5.640625 -6.125 9.8125 -10.671875q4.171875 -4.53125 9.203125 -13.359375q5.03125 -8.828125 7.59375 -13.0q2.5781097 -4.171875 7.2343597 -14.96875q4.671875 -10.796875 6.015625 -13.859375q1.359375 -3.0625 6.015625 -14.828125q4.65625 -11.78125 5.15625 -13.265625q-8.09375 13.25 -22.9375 25.890625q-14.843735 12.625 -24.17186 12.625q-4.40625 0 -4.40625 -5.390625l0 -1.71875q1.703125 -13.734375 11.515625 -29.6875q19.14061 -30.656235 39.749985 -30.656235l28.21875 0q1.21875 0 1.21875 0.96875q0 1.96875 -2.203125 1.96875q-5.40625 0 -8.828125 6.375q-6.625 10.546875 -23.1875 49.187485q-16.5625 38.640625 -23.187485 50.296875q-6.625 11.65625 -17.65625 23.1875q-19.625 20.84375 -42.453125 20.84375q-9.8125 0 -18.390625 -4.40625q-15.21875 -8.09375 -15.21875 -26.75l0 -4.171875q0 -3.671875 3.1875 -3.671875q0.5 0 0.5 0.484375zm124.624985 -106.468735q0 -4.65625 -6.140625 -4.65625q-6.125 0 -13.734375 7.109375q-7.609375 7.109375 -16.687485 22.937485q-9.0625 15.828125 -9.0625 22.9375q0 2.953125 2.203125 2.953125q7.109375 0 25.26561 -21.71875q18.15625 -21.718735 18.15625 -29.562485zm91.01196 22.812485q0.5 0.5 0.5 1.96875q0 1.46875 -3.4375 6.125q-21.84375 28.953125 -40.484375 28.953125q-5.890625 0 -5.890625 -4.65625q0 -8.59375 9.578125 -23.5625q-8.59375 9.078125 -19.640625 18.53125q-11.03125 9.4375 -20.59375 9.4375q-4.421875 0 -4.421875 -5.390625q0 -1.234375 0.25 -1.71875q1.71875 -13.984375 11.28125 -29.4375q19.140625 -30.906235 39.75 -30.906235l28.203125 0q1.234375 0 1.234375 0.96875q0 1.96875 -2.21875 1.96875q-3.421875 0 -8.578125 7.984375q-5.15625 7.96875 -13.625 24.531235q-8.453125 16.546875 -8.453125 20.84375q0 4.296875 3.4375 4.296875q5.640625 0 15.6875 -9.8125q5.40625 -5.640625 8.09375 -8.828125q2.703125 -3.203125 3.5625 -4.171875q0.859375 -0.984375 5.765625 -7.125zm-26.25 -22.812485q0 -4.65625 -6.265625 -4.65625q-6.25 0 -13.859375 7.109375q-7.59375 7.109375 -16.546875 22.937485q-8.953125 15.828125 -8.953125 22.9375q0 2.953125 1.953125 2.953125q7.125 0 25.390625 -21.71875q18.28125 -21.718735 18.28125 -29.562485zm85.376495 10.546875q0 -11.28125 -7.0 -11.28125q-6.984375 0 -19.859375 14.843735q-12.875 14.84375 -19.5 31.765625l-5.15625 13.734375q-1.46875 0 -5.890625 1.46875q-4.421875 1.484375 -4.65625 1.484375q-1.234375 0 -0.125 -2.21875q1.109375 -2.203125 4.171875 -9.5625q3.0625 -7.359375 7.484375 -18.640625q8.578125 -21.593735 11.53125 -28.45311q-13.015625 13.98436 -23.5625 27.95311q-1.71875 2.453125 -1.71875 -0.484375q0 -1.96875 1.234375 -3.4375q17.421875 -21.57811 26.734375 -35.07811q12.265625 -1.71875 14.234375 -3.4375q1.96875 -1.71875 2.453125 -1.71875q0.484375 0 0.609375 0.984375q0.125 0.984375 -1.34375 2.703125q-1.46875 1.71875 -16.4375 29.187485q6.625 -10.04686 16.796875 -19.85936q10.1875 -9.828125 17.421875 -9.828125q7.234375 0 9.453125 6.140625q0.984375 1.21875 0.984375 2.703125q0 1.46875 -0.5 3.796875q-0.484375 2.328125 -0.984375 3.796875q-2.6875 6.140625 -3.921875 7.3593597q-0.734375 1.234375 -2.453125 1.484375q-0.25 -0.25 -0.484375 -0.5q0.484375 -2.6874847 0.484375 -4.9062347zm189.14285 -79.109375q12.515625 -5.28125 20.125 -5.28125q7.609375 0 12.015625 1.71875q4.421875 1.71875 7.125 3.921875q2.703125 2.203125 2.703125 4.171875q0 1.96875 -0.75 1.96875q-0.734375 0 -3.796875 -2.9375q-3.0625 -2.953125 -9.203125 -2.953125q-6.125 0 -21.828125 6.375q-26.25 11.28125 -43.921875 20.984375q-17.65625 9.6875 -49.796875 32.984375q2.953125 8.09375 10.0625 21.109375q7.109375 12.999985 15.328125 22.937485q8.21875 9.9375 14.234375 12.640625q6.015625 2.6875 8.703125 2.6875q2.703125 0 5.765625 -0.484375q3.078125 -0.5 9.078125 -5.03125q6.015625 -4.546875 9.9375 -8.953125q3.921875 -4.421875 9.078125 -11.296875q1.96875 -2.6875 2.703125 -0.734375q0 1.46875 -1.234375 3.4375q-12.75 17.671875 -21.953125 25.28125q-9.203125 7.59375 -18.515625 7.59375q-13.25 0 -25.765625 -16.4375q-12.015625 -15.703125 -22.578125 -38.76561q-4.15625 -9.078125 -4.40625 -9.5625q21.09375 -19.375 57.40625 -41.953125q26.984375 -18.15625 39.484375 -23.421875zm-147.79688 130.37498q-3.0625 2.703125 -4.296875 2.703125q-1.21875 0 -1.21875 -0.96875q0 -0.25 0.234375 -0.5q10.546875 -8.578125 19.140625 -23.296875q19.875 -33.60936 48.078125 -84.89061q11.78125 -20.609375 28.703125 -25.265625q-21.34375 0.484375 -33.84375 3.4375q-18.65625 4.171875 -18.65625 18.890625q0 6.375 3.4375 8.828125q0.984375 0.734375 -0.25 1.46875q-1.21875 0.734375 -2.6875 -0.125q-1.46875 -0.859375 -4.671875 -5.515625q-4.90625 -7.359375 -4.90625 -12.75q0 -5.40625 2.703125 -9.453125q2.703125 -4.046875 11.046875 -5.765625q12.75 -2.9375 27.46875 -2.9375q0.5 0 12.640625 0q12.140625 0 15.578125 -0.609375q3.4375 -0.625 3.921875 -0.625q2.203125 0 2.703125 2.703125q0 2.453125 -2.21875 2.453125q-1.46875 -0.5 -2.9375 -0.5q-11.046875 0 -22.328125 19.875q-27.46875 46.375 -53.71875 98.874985q-0.5 0.984375 -1.84375 4.421875q-1.34375 3.421875 -2.578125 4.90625q-1.21875 1.46875 -3.1875 1.09375q-1.96875 -0.375 -4.171875 -0.375q-2.203125 0 -5.640625 0.625q-3.4375 0.609375 -6.5 3.296875zm200.05566 -71.624985q4.90625 0 4.90625 3.921875q0 3.1875 -3.1875 9.078125q-5.390625 8.59375 -13.609375 24.781235q-8.21875 16.1875 -8.21875 20.0q0 3.796875 1.46875 4.65625q1.46875 0.859375 3.4375 0.359375q4.171875 -0.96875 6.875 -3.1875q10.296875 -7.84375 23.796875 -24.53125l0.234375 1.234375q-0.234375 3.4375 -3.546875 7.734375q-3.3125 4.28125 -9.453125 11.15625q-13.25 15.203125 -25.75 15.203125q-9.578125 0 -9.578125 -6.375q0 -2.453125 0.859375 -4.78125q0.859375 -2.328125 11.28125 -24.03125q10.4375 -21.718735 10.4375 -22.937485q0 -1.234375 -0.984375 -1.234375q-2.703125 0 -11.28125 7.109375q-11.046875 10.29686 -20.984375 23.187485q-9.9375 12.875 -14.109375 24.65625q-0.96875 2.6875 -6.375 3.296875q-5.390625 0.625 -5.390625 -1.34375q0 -0.484375 1.109375 -3.0625q1.09375 -2.578125 9.796875 -23.921875q8.71875 -21.343735 14.609375 -33.85936q22.078125 -49.0625 47.09375 -71.140625q20.359375 -17.90625 43.671875 -17.90625q13.5 0 14.46875 10.546875q0.25 1.234375 0.25 3.4375q0 2.203125 -0.984375 5.640625q-0.234375 0.984375 -1.21875 0.984375l-1.234375 0q-0.234375 0 0 -0.734375q0.25 -0.734375 0.25 -1.71875q0 -9.578125 -14.46875 -9.578125q-22.078125 0 -40.734375 16.203125q-22.5625 19.859375 -39.984375 65.984375q-2.453125 6.625 -6.875 18.656235q-4.40625 12.015625 -6.125 16.421875q33.125 -43.906235 49.546875 -43.906235zm89.29834 32.624985q0.5 0.5 0.5 1.96875q0 1.46875 -3.4375 6.125q-21.84375 28.953125 -40.484375 28.953125q-5.890625 0 -5.890625 -4.65625q0 -8.59375 9.578125 -23.5625q-8.59375 9.078125 -19.640625 18.53125q-11.03125 9.4375 -20.59375 9.4375q-4.421875 0 -4.421875 -5.390625q0 -1.234375 0.25 -1.71875q1.71875 -13.984375 11.28125 -29.4375q19.140625 -30.906235 39.75 -30.906235l28.203125 0q1.234375 0 1.234375 0.96875q0 1.96875 -2.21875 1.96875q-3.421875 0 -8.578125 7.984375q-5.15625 7.96875 -13.625 24.531235q-8.453125 16.546875 -8.453125 20.84375q0 4.296875 3.4375 4.296875q5.640625 0 15.6875 -9.8125q5.40625 -5.640625 8.09375 -8.828125q2.703125 -3.203125 3.5625 -4.171875q0.859375 -0.984375 5.765625 -7.125zm-26.25 -22.812485q0 -4.65625 -6.265625 -4.65625q-6.25 0 -13.859375 7.109375q-7.59375 7.109375 -16.546875 22.937485q-8.953125 15.828125 -8.953125 22.9375q0 2.953125 1.953125 2.953125q7.125 0 25.390625 -21.71875q18.28125 -21.718735 18.28125 -29.562485zm41.70459 -8.09375l7.609375 0.25q9.5625 -13.015625 19.140625 -34.109375q2.203125 -0.25 6.859375 -2.8125q4.671875 -2.578125 6.75 -4.65625q2.09375 -2.09375 2.703125 -2.09375q0.609375 0 0.609375 0.609375q0 0.609375 -1.96875 2.828125q-1.953125 2.203125 -9.6875 14.59375q-7.71875 12.390625 -14.109375 25.640625l19.875 0q2.453125 0 2.703125 0.734375q0.25 0.734375 -1.59375 1.34375q-1.84375 0.609375 -3.4375 1.109375q-1.59375 0.484375 -6.984375 0.984375q-12.03125 0.734375 -14.859375 4.78125q-2.8125 4.046875 -9.671875 20.718735q-12.765625 30.921875 -3.9375 30.921875q7.609375 0 27.96875 -23.5625l4.671875 -5.875q0.484375 0.734375 0.484375 2.328125q0 1.59375 -2.703125 5.265625q-22.5625 28.953125 -40.71875 28.953125q-5.890625 0 -5.890625 -4.65625q0 -5.890625 9.5625 -25.03125l13.25 -29.687485q-25.015625 30.42186 -25.515625 31.156235q-1.71875 2.453125 -1.71875 -0.484375q0 -1.96875 1.234375 -3.4375q16.6875 -20.843735 23.0625 -29.187485q-2.203125 0 -13.25 1.21875q-2.453125 0 1.84375 -3.921875q4.296875 -3.921875 6.0 -3.921875l1.71875 0zm92.246826 18.640625q0 -11.28125 -7.0 -11.28125q-6.984375 0 -19.859375 14.843735q-12.875 14.84375 -19.5 31.765625l-5.15625 13.734375q-1.46875 0 -5.890625 1.46875q-4.421875 1.484375 -4.65625 1.484375q-1.234375 0 -0.125 -2.21875q1.109375 -2.203125 4.171875 -9.5625q3.0625 -7.359375 7.484375 -18.640625q8.578125 -21.593735 11.53125 -28.45311q-13.015625 13.98436 -23.5625 27.95311q-1.71875 2.453125 -1.71875 -0.484375q0 -1.96875 1.234375 -3.4375q17.421875 -21.57811 26.734375 -35.07811q12.265625 -1.71875 14.234375 -3.4375q1.96875 -1.71875 2.453125 -1.71875q0.484375 0 0.609375 0.984375q0.125 0.984375 -1.34375 2.703125q-1.46875 1.71875 -16.4375 29.187485q6.625 -10.04686 16.796875 -19.85936q10.1875 -9.828125 17.421875 -9.828125q7.234375 0 9.453125 6.140625q0.984375 1.21875 0.984375 2.703125q0 1.46875 -0.5 3.796875q-0.484375 2.328125 -0.984375 3.796875q-2.6875 6.140625 -3.921875 7.3593597q-0.734375 1.234375 -2.453125 1.484375q-0.25 -0.25 -0.484375 -0.5q0.484375 -2.6874847 0.484375 -4.9062347zm40.229248 34.10936q-4.65625 5.140625 -12.875 10.171875q-8.21875 5.03125 -14.96875 5.03125q-6.734375 0 -6.734375 -4.65625q0 -4.421875 2.453125 -9.8125q1.703125 -3.921875 19.625 -41.70311q-13.015625 13.98436 -23.5625 27.95311q-1.71875 2.453125 -1.71875 -0.484375q0 -1.96875 1.234375 -3.4375q17.421875 -21.57811 26.734375 -35.07811q12.265625 -1.71875 14.71875 -3.921875q2.453125 -2.203125 2.703125 -0.25q0 0.984375 -1.109375 2.34375q-1.09375 1.34375 -19.984375 36.906235q-8.34375 15.703125 -8.34375 21.59375q0 3.4375 3.4375 3.4375q7.609375 0 27.46875 -23.5625l5.40625 -6.125q2.9375 2.9375 -14.484375 21.59375zm13.75 -79.249985q-5.890625 0 -5.890625 -6.375q0 -2.9375 3.3125 -5.140625q3.3125 -2.21875 5.875 -2.21875q2.578125 0 4.046875 2.09375q1.484375 2.078125 1.484375 3.296875q0 4.421875 -3.1875 6.390625q-3.1875 1.953125 -5.640625 1.953125z" fill-rule="nonzero"/></g></svg>