<?xml version="1.0" standalone="no"?>
<!DOCTYPE svg PUBLIC "-//W3C//DTD SVG 20010904//EN"
 "http://www.w3.org/TR/2001/REC-SVG-20010904/DTD/svg10.dtd">
<svg version="1.0" xmlns="http://www.w3.org/2000/svg"
 width="500.000000pt" height="500.000000pt" viewBox="0 0 500.000000 500.000000"
 preserveAspectRatio="xMidYMid meet">
<metadata>
Created by potrace 1.16, written by Peter Selinger 2001-2019
</metadata>
<g transform="translate(0.000000,500.000000) scale(0.100000,-0.100000)"
fill="#000000" stroke="none">
<path d="M2308 4817 c-103 -49 -666 -382 -661 -391 4 -5 1 -6 -5 -3 -10 7
-1199 -673 -1262 -722 -19 -15 -45 -47 -58 -71 l-22 -45 2 -504 3 -505 1044
-608 1044 -608 281 162 c155 89 305 175 334 192 28 17 52 33 52 37 0 4 -424
253 -942 554 -1192 692 -1123 652 -1156 680 -15 13 -41 47 -57 77 -26 46 -30
63 -30 133 0 69 4 87 29 132 15 28 40 63 55 76 43 42 1326 775 1376 788 73 18
146 6 228 -39 40 -22 490 -283 1001 -581 511 -297 931 -541 932 -541 2 0 4
126 4 280 0 310 -2 323 -61 379 -19 17 -126 85 -239 150 -113 64 -538 310
-945 546 -407 235 -754 434 -772 441 -49 21 -121 17 -175 -9z"/>
<path d="M2270 3506 c-69 -40 -218 -127 -332 -193 l-207 -120 1035 -604 c569
-332 1051 -619 1071 -638 111 -106 111 -295 0 -402 -35 -34 -1263 -749 -1340
-781 -50 -20 -148 -22 -197 -4 -19 7 -476 267 -1014 579 -539 312 -981 567
-983 567 -1 0 -3 -126 -3 -280 0 -256 2 -284 19 -318 10 -20 30 -47 43 -59 22
-21 1765 -1035 1916 -1114 77 -41 141 -50 197 -29 48 18 1929 1112 1958 1139
16 14 37 43 48 63 18 36 19 62 17 549 l-3 511 -1043 604 c-574 332 -1046 604
-1050 604 -4 -1 -63 -34 -132 -74z"/>
</g>
</svg>
