<?xml version="1.0" standalone="no"?>
<!DOCTYPE svg PUBLIC "-//W3C//DTD SVG 20010904//EN"
 "http://www.w3.org/TR/2001/REC-SVG-20010904/DTD/svg10.dtd">
<svg version="1.0" xmlns="http://www.w3.org/2000/svg"
 width="783.000000pt" height="459.000000pt" viewBox="0 0 783.000000 459.000000"
 preserveAspectRatio="xMidYMid meet">
<metadata>
Created by potrace 1.16, written by Peter Selinger 2001-2019
</metadata>
<g transform="translate(0.000000,459.000000) scale(0.100000,-0.100000)"
fill="#000000" stroke="none">
<path d="M1400 4260 c0 -5 -22 -10 -50 -10 -27 0 -50 -4 -50 -10 0 -5 -18 -10
-40 -10 -22 0 -40 -4 -40 -10 0 -5 -13 -10 -30 -10 -16 0 -30 -4 -30 -10 0 -5
-13 -10 -30 -10 -16 0 -30 -4 -30 -10 0 -5 -8 -10 -18 -10 -10 0 -24 -9 -32
-20 -8 -11 -25 -20 -37 -20 -27 0 -193 -160 -193 -185 0 -8 -4 -15 -10 -15 -5
0 -10 -8 -10 -18 0 -10 -9 -24 -20 -32 -14 -10 -20 -26 -20 -52 0 -21 -4 -38
-10 -38 -5 0 -10 -18 -10 -40 0 -22 -4 -40 -10 -40 -5 0 -10 -18 -10 -40 0
-22 -4 -40 -10 -40 -6 0 -10 -33 -10 -80 0 -47 4 -80 10 -80 6 0 10 -22 10
-50 0 -27 5 -50 10 -50 6 0 10 -13 10 -30 0 -16 5 -30 10 -30 6 0 10 -8 10
-18 0 -10 9 -24 20 -32 11 -8 20 -22 20 -32 0 -10 5 -18 10 -18 6 0 10 -9 10
-20 0 -11 5 -20 10 -20 6 0 10 -9 10 -19 0 -11 6 -21 12 -23 17 -6 -14 -38
-36 -38 -9 0 -16 -4 -16 -10 0 -5 -13 -10 -30 -10 -16 0 -30 -4 -30 -10 0 -5
-13 -10 -28 -10 -16 0 -34 -8 -42 -20 -8 -11 -20 -20 -28 -20 -18 0 -82 -66
-82 -85 0 -8 -4 -15 -10 -15 -5 0 -10 -13 -10 -30 0 -16 -4 -30 -10 -30 -5 0
-10 -22 -10 -50 0 -27 -4 -50 -10 -50 -5 0 -10 -22 -10 -50 0 -27 5 -50 10
-50 6 0 10 -22 10 -50 0 -27 5 -50 10 -50 6 0 10 -9 10 -20 0 -11 5 -20 10
-20 6 0 10 -9 10 -19 0 -11 6 -22 13 -25 10 -5 10 -7 0 -12 -16 -7 -18 -124
-3 -124 6 0 10 -22 10 -50 0 -27 5 -50 10 -50 6 0 10 -27 10 -60 0 -33 -4 -60
-10 -60 -6 0 -10 -27 -10 -60 0 -33 -4 -60 -10 -60 -6 0 -10 -33 -10 -80 0
-47 -4 -80 -10 -80 -5 0 -10 -18 -10 -40 0 -22 -4 -40 -10 -40 -6 0 -10 -27
-10 -60 0 -33 -4 -60 -10 -60 -6 0 -10 -33 -10 -80 0 -47 -4 -80 -10 -80 -5 0
-10 -18 -10 -40 0 -22 -4 -40 -10 -40 -6 0 -10 -27 -10 -60 0 -33 -4 -60 -10
-60 -5 0 -10 -16 -10 -35 0 -37 -35 -85 -62 -85 -8 0 -20 -9 -28 -20 -8 -11
-22 -20 -32 -20 -17 0 -18 63 -18 1350 0 1193 -2 1350 -15 1350 -12 0 -15 14
-15 70 0 63 -2 70 -20 70 -17 0 -20 7 -20 45 0 33 -4 45 -15 45 -11 0 -15 11
-15 36 0 39 -20 63 -52 64 -11 0 -18 8 -18 20 0 16 -5 19 -30 14 -22 -5 -30
-3 -30 8 0 18 -44 43 -59 34 -8 -5 -11 -549 -11 -1936 0 -1833 1 -1929 18
-1923 25 9 112 95 112 111 0 8 16 32 35 55 21 25 35 51 35 68 0 14 7 32 15 39
10 8 15 31 15 67 l0 54 25 -25 c14 -14 25 -30 25 -36 0 -15 46 -60 62 -60 8 0
20 -9 28 -20 8 -11 22 -20 32 -20 10 0 18 -4 18 -10 0 -6 27 -10 60 -10 33 0
60 -4 60 -10 0 -6 30 -10 70 -10 40 0 70 4 70 10 0 6 23 10 50 10 28 0 50 5
50 10 0 6 9 10 20 10 11 0 20 5 20 10 0 6 9 10 20 10 11 0 20 5 20 10 0 6 8
10 18 10 10 0 24 9 32 20 8 11 20 20 28 20 17 0 42 24 42 40 0 7 14 25 30 40
17 15 30 35 30 44 0 9 5 16 10 16 6 0 10 9 10 20 0 11 5 20 10 20 6 0 10 9 10
20 0 11 5 20 10 20 6 0 10 9 10 20 0 11 5 20 10 20 6 0 10 14 10 30 0 17 5 30
10 30 6 0 10 9 10 20 0 11 5 20 10 20 6 0 10 18 10 40 0 22 5 40 10 40 6 0 10
14 10 30 0 17 5 30 10 30 6 0 10 9 10 20 0 11 5 20 10 20 6 0 10 9 10 20 0 11
5 20 10 20 6 0 10 -7 10 -16 0 -20 24 -44 44 -44 11 0 16 -9 16 -30 0 -16 5
-30 10 -30 6 0 10 -8 10 -18 0 -10 9 -24 20 -32 11 -8 20 -26 20 -40 0 -14 9
-32 20 -40 11 -8 20 -22 20 -32 0 -10 5 -18 10 -18 6 0 10 -12 10 -26 0 -16
12 -37 30 -54 16 -15 30 -35 30 -44 0 -9 5 -16 10 -16 6 0 10 -9 10 -20 0 -11
5 -20 10 -20 6 0 10 -7 10 -16 0 -9 14 -29 30 -44 16 -15 30 -38 30 -50 0 -12
17 -38 40 -60 22 -21 40 -45 40 -52 0 -7 9 -20 20 -28 11 -8 20 -20 20 -28 0
-7 27 -40 60 -72 33 -32 60 -64 60 -70 0 -14 46 -60 61 -60 6 0 24 -13 39 -30
15 -16 33 -30 40 -30 7 0 25 -13 40 -30 15 -16 35 -30 44 -30 9 0 16 -4 16
-10 0 -5 9 -10 20 -10 11 0 20 -4 20 -10 0 -5 9 -10 20 -10 11 0 20 -4 20 -10
0 -5 18 -10 40 -10 22 0 40 -4 40 -10 0 -5 18 -10 40 -10 22 0 40 -4 40 -10 0
-6 37 -10 90 -10 53 0 90 4 90 10 0 6 18 10 40 10 22 0 40 5 40 10 0 6 23 10
50 10 28 0 50 5 50 10 0 6 14 10 30 10 17 0 30 5 30 10 0 6 9 10 20 10 11 0
20 5 20 10 0 6 7 10 15 10 27 0 145 127 145 155 0 14 5 25 10 25 6 0 10 9 10
20 0 11 5 20 10 20 6 0 10 37 10 90 0 89 0 90 24 90 14 0 28 -5 31 -10 3 -6
53 -10 113 -10 107 0 107 0 199 46 50 25 97 52 103 60 23 27 107 9 140 -31 7
-8 25 -15 41 -15 16 0 44 -9 64 -20 20 -11 44 -20 55 -20 10 0 22 -4 25 -10 8
-13 352 -13 360 0 3 5 15 10 25 10 11 0 35 9 55 20 50 28 170 28 220 0 20 -11
44 -20 55 -20 10 0 22 -5 25 -10 8 -13 232 -13 240 0 3 6 17 10 29 10 13 0 29
7 36 15 34 41 159 80 175 55 3 -6 14 -10 25 -10 10 0 44 -13 75 -30 35 -18 72
-30 95 -30 22 0 42 -5 45 -10 3 -6 48 -10 100 -10 52 0 97 4 100 10 3 5 15 10
25 10 11 0 35 9 55 20 20 11 44 20 55 20 10 0 22 5 25 10 12 20 83 10 140 -20
35 -18 72 -30 95 -30 22 0 42 -5 45 -10 8 -13 112 -13 120 0 3 6 23 10 44 10
34 0 148 49 185 79 23 20 106 193 106 223 0 15 4 30 10 33 5 3 10 17 10 30 0
13 5 27 10 30 6 3 10 21 10 40 0 19 5 37 10 40 6 3 10 19 10 35 0 16 9 45 20
65 11 20 20 47 20 60 0 29 15 59 49 97 30 34 66 36 116 8 20 -11 44 -20 54
-20 37 0 78 -68 51 -85 -6 -4 -10 -63 -10 -145 0 -82 4 -141 10 -145 6 -3 10
-17 10 -30 0 -13 5 -27 10 -30 6 -3 10 -15 10 -26 0 -10 6 -29 12 -42 22 -39
162 -177 180 -177 10 0 33 -9 53 -20 22 -12 54 -20 85 -20 27 0 52 -5 55 -10
8 -13 132 -13 140 0 3 6 26 10 49 10 27 0 48 6 56 15 7 9 29 23 49 32 42 19
161 137 161 158 0 8 5 15 10 15 6 0 10 9 10 20 0 11 5 20 10 20 6 0 10 9 10
20 0 11 5 20 10 20 6 0 10 14 10 30 0 17 5 30 10 30 6 0 10 30 10 70 0 40 -4
70 -10 70 -5 0 -10 14 -10 30 0 17 -4 30 -10 30 -5 0 -10 7 -10 16 0 8 -18 33
-40 54 -39 37 -40 41 -40 104 0 37 4 66 10 66 6 0 10 18 10 40 0 22 5 40 10
40 6 0 10 60 10 160 0 100 -4 160 -10 160 -5 0 -10 9 -10 20 0 11 -4 20 -10
20 -5 0 -10 8 -10 18 0 10 -9 24 -20 32 -14 10 -20 26 -20 52 0 21 5 38 10 38
6 0 10 8 10 18 0 10 9 24 20 32 11 8 20 21 20 30 0 9 9 22 20 30 12 8 20 26
20 42 0 15 5 28 10 28 6 0 10 43 10 110 0 67 -4 110 -10 110 -5 0 -10 9 -10
20 0 11 -4 20 -10 20 -5 0 -10 11 -10 25 0 25 -78 115 -99 115 -4 0 -14 7 -21
15 -18 22 -70 45 -101 45 -15 0 -31 5 -34 10 -3 6 -35 10 -70 10 -35 0 -67 -4
-70 -10 -3 -5 -19 -10 -34 -10 -31 0 -83 -23 -101 -45 -7 -8 -18 -15 -24 -15
-14 0 -75 -64 -94 -97 -6 -13 -12 -32 -12 -42 0 -11 -4 -23 -10 -26 -5 -3 -10
-19 -10 -36 0 -16 -6 -38 -12 -49 -10 -16 -10 -24 0 -40 6 -11 12 -44 12 -75
0 -36 7 -66 20 -90 29 -51 27 -85 -4 -85 -14 0 -28 5 -31 10 -3 6 -17 10 -30
10 -13 0 -27 5 -30 10 -4 6 -62 10 -140 10 -78 0 -136 -4 -140 -10 -3 -5 -19
-10 -35 -10 -15 0 -54 -13 -85 -30 -31 -16 -65 -30 -75 -30 -11 0 -22 -5 -25
-10 -8 -13 -72 -13 -80 0 -4 6 -91 10 -229 10 -266 0 -256 -4 -256 112 0 75
-14 123 -45 148 -8 7 -15 20 -14 29 0 10 2 11 6 4 2 -8 22 -13 44 -13 21 0 39
-4 39 -10 0 -5 9 -10 20 -10 11 0 20 -4 20 -10 0 -6 40 -10 100 -10 60 0 100
4 100 10 0 6 18 10 40 10 22 0 40 5 40 10 0 6 14 10 30 10 17 0 30 5 30 10 0
6 23 10 50 10 28 0 50 -4 50 -10 0 -5 18 -10 40 -10 22 0 40 -4 40 -10 0 -6
57 -10 150 -10 93 0 150 4 150 10 0 6 12 10 26 10 17 0 39 14 64 40 21 22 46
40 54 40 9 0 16 8 16 20 0 11 5 20 10 20 6 0 10 13 10 28 0 16 8 34 20 42 14
10 20 26 20 52 0 21 5 38 10 38 6 0 10 18 10 40 0 22 5 40 10 40 6 0 10 9 10
20 0 11 5 20 10 20 6 0 10 23 10 50 0 28 5 50 10 50 6 0 10 14 10 30 0 17 5
30 10 30 6 0 10 14 10 30 0 17 5 30 10 30 6 0 10 16 10 35 0 49 36 85 85 85
19 0 35 -4 35 -10 0 -5 18 -10 40 -10 22 0 40 -4 40 -10 0 -6 40 -10 100 -10
60 0 100 4 100 10 0 6 9 10 20 10 11 0 20 5 20 10 0 6 9 10 20 10 11 0 20 5
20 10 0 6 7 10 15 10 20 0 85 65 85 85 0 8 5 15 10 15 6 0 10 9 10 20 0 11 5
20 10 20 6 0 10 18 10 40 0 22 5 40 10 40 6 0 10 40 10 100 0 60 -4 100 -10
100 -5 0 -10 13 -10 28 0 16 -8 34 -20 42 -11 8 -20 20 -20 27 0 25 -108 123
-135 123 -14 0 -25 5 -25 10 0 6 -9 10 -20 10 -11 0 -20 5 -20 10 0 6 -27 10
-60 10 -33 0 -60 4 -60 10 0 6 -9 10 -20 10 -11 0 -20 -4 -20 -10 0 -6 -33
-10 -80 -10 -47 0 -80 -4 -80 -10 0 -5 -9 -10 -20 -10 -11 0 -20 -4 -20 -10 0
-5 -17 -10 -38 -10 -26 0 -42 -6 -52 -20 -8 -11 -22 -20 -32 -20 -10 0 -18 -4
-18 -10 0 -6 -30 -10 -70 -10 -40 0 -70 4 -70 10 0 6 -22 10 -50 10 -27 0 -50
5 -50 10 0 6 -22 10 -50 10 -27 0 -50 -4 -50 -10 0 -5 -22 -10 -50 -10 -27 0
-50 -4 -50 -10 0 -5 -9 -10 -20 -10 -11 0 -20 -4 -20 -10 0 -5 -13 -10 -30
-10 -16 0 -30 -4 -30 -10 0 -5 -9 -10 -20 -10 -11 0 -20 -4 -20 -10 0 -18 -55
-11 -70 10 -8 11 -22 20 -32 20 -10 0 -18 5 -18 10 0 6 -13 10 -30 10 -16 0
-30 5 -30 10 0 6 -60 10 -160 10 -100 0 -160 -4 -160 -10 0 -5 -18 -10 -40
-10 -22 0 -40 5 -40 10 0 6 -18 10 -40 10 -22 0 -40 5 -40 10 0 6 -67 10 -180
10 -113 0 -180 -4 -180 -10 0 -5 -13 -10 -30 -10 -16 0 -30 -4 -30 -10 0 -5
-18 -10 -40 -10 -22 0 -40 -4 -40 -10 0 -6 -30 -10 -70 -10 -40 0 -70 4 -70
10 0 6 -9 10 -20 10 -11 0 -20 5 -20 10 0 6 -9 10 -20 10 -11 0 -20 5 -20 10
0 6 -18 10 -40 10 -22 0 -40 5 -40 10 0 6 -30 10 -70 10 -40 0 -70 -4 -70 -10
0 -6 -110 -10 -310 -10 -200 0 -310 -4 -310 -10 0 -5 -9 -10 -20 -10 -11 0
-20 -4 -20 -10 0 -5 -18 -10 -40 -10 -22 0 -40 -4 -40 -10 0 -5 -13 -10 -28
-10 -16 0 -34 -8 -42 -20 -8 -12 -26 -20 -42 -20 -15 0 -28 -4 -28 -10 0 -5
-9 -10 -20 -10 -11 0 -20 -4 -20 -10 0 -5 -9 -10 -19 -10 -11 0 -21 -6 -24
-12 -2 -8 -20 4 -45 30 -22 23 -47 42 -54 42 -7 0 -20 9 -28 20 -10 14 -26 20
-52 20 -21 0 -38 5 -38 10 0 6 -50 10 -130 10 -80 0 -130 -4 -130 -10 0 -6
-30 -10 -70 -10 -40 0 -70 4 -70 10 0 6 -13 10 -30 10 -16 0 -30 5 -30 10 0 6
-63 10 -170 10 -107 0 -170 -4 -170 -10 0 -5 -18 -10 -40 -10 -22 0 -40 -4
-40 -10 0 -5 -18 -10 -40 -10 -22 0 -40 -4 -40 -10 0 -5 -13 -10 -30 -10 -16
0 -30 -4 -30 -10 0 -5 -9 -10 -20 -10 -11 0 -20 -4 -20 -10 0 -5 -13 -10 -30
-10 -23 0 -30 4 -30 20 0 11 5 20 10 20 6 0 10 18 10 40 0 22 5 40 10 40 6 0
10 23 10 50 0 28 5 50 10 50 6 0 10 18 10 40 0 22 -4 40 -10 40 -5 0 -10 14
-10 30 0 17 -4 30 -10 30 -5 0 -10 18 -10 40 0 22 -4 40 -10 40 -5 0 -10 8
-10 18 0 10 -9 24 -20 32 -11 8 -20 20 -20 28 0 18 -25 42 -44 42 -9 0 -16 7
-16 16 0 19 -24 44 -42 44 -8 0 -20 9 -28 20 -8 11 -22 20 -32 20 -10 0 -18 5
-18 10 0 6 -18 10 -40 10 -22 0 -40 5 -40 10 0 6 -9 10 -20 10 -11 0 -20 5
-20 10 0 6 -13 10 -30 10 -16 0 -30 5 -30 10 0 6 -27 10 -60 10 -33 0 -60 4
-60 10 0 6 -80 10 -220 10 -140 0 -220 -4 -220 -10z m299 -111 c232 -37 376
-140 388 -278 5 -58 5 -59 -37 -104 -38 -42 -92 -72 -145 -79 -17 -3 -21 6
-31 78 -34 233 -104 316 -281 333 -262 25 -444 -93 -446 -290 -1 -124 71 -190
377 -346 317 -161 400 -223 453 -340 22 -48 25 -65 21 -133 -16 -283 -323
-470 -773 -471 -298 -1 -523 81 -589 213 -38 76 -35 128 10 177 39 44 106 81
146 81 23 0 26 -4 32 -54 15 -132 73 -252 144 -299 72 -47 127 -60 252 -60
126 0 209 16 294 59 138 69 207 206 159 316 -36 79 -109 125 -409 257 -255
112 -361 189 -412 299 -22 47 -26 71 -26 137 2 220 115 380 328 460 37 14 102
32 144 39 93 17 312 20 401 5z m-4 -424 c14 -13 25 -31 25 -40 0 -8 5 -15 10
-15 6 0 10 -22 10 -50 0 -49 -1 -50 -30 -50 -23 0 -30 4 -30 20 0 13 -7 20
-20 20 -11 0 -20 5 -20 10 0 6 -8 10 -18 10 -10 0 -24 9 -32 20 -8 11 -22 20
-32 20 -25 0 -22 26 5 55 32 34 99 34 132 0z m5495 -178 c57 -30 82 -65 88
-125 8 -93 -56 -169 -152 -179 l-44 -5 -11 54 c-30 144 -127 185 -235 99 -122
-97 -194 -242 -276 -561 -34 -129 -65 -246 -69 -260 -7 -22 -15 -26 -77 -33
-73 -8 -171 -1 -194 13 -11 7 -2 75 48 382 35 205 62 395 62 421 0 95 -55 65
-121 -65 -38 -75 -48 -86 -62 -71 -10 9 69 153 106 191 57 60 101 77 203 77
80 0 95 -3 127 -25 44 -30 58 -58 66 -135 l7 -60 17 32 c27 50 125 151 190
195 117 79 241 100 327 55z m-2499 -37 c49 -14 77 -66 57 -107 -13 -27 -71
-73 -92 -73 -6 0 -19 20 -30 45 -26 64 -87 91 -149 66 -16 -6 -16 -9 8 -31 75
-70 91 -194 40 -307 -70 -156 -255 -253 -484 -253 -53 0 -121 6 -151 14 -48
13 -59 13 -87 -1 -78 -37 -116 -120 -74 -162 42 -42 89 -38 401 34 156 37 265
33 337 -11 36 -22 55 -43 76 -84 26 -50 28 -63 25 -135 -10 -199 -136 -315
-384 -355 -97 -16 -334 -14 -424 4 -186 36 -267 99 -240 188 13 44 54 71 103
66 31 -3 32 -4 29 -49 -3 -37 1 -51 22 -76 120 -143 636 -103 744 57 31 46 27
99 -8 117 -34 17 -138 16 -373 -3 -218 -19 -291 -13 -373 26 -67 33 -89 71
-89 155 0 53 6 81 23 117 27 55 90 120 132 138 38 16 37 21 0 44 -17 9 -44 41
-60 69 -25 43 -30 63 -30 119 0 170 90 284 275 345 73 24 94 27 235 27 120 1
168 -3 211 -16 52 -16 60 -17 93 -3 97 41 175 52 237 35z m-1756 -39 c28 -12
66 -38 86 -57 l35 -34 23 30 c44 60 73 70 204 70 l118 0 -7 -37 c-16 -94 -59
-284 -104 -463 -57 -225 -62 -276 -26 -309 44 -42 132 -23 172 36 10 15 34 58
54 95 26 49 39 65 49 59 18 -11 -74 -191 -130 -254 -142 -162 -371 -84 -404
136 l-7 47 -37 -58 c-21 -31 -63 -80 -94 -109 -77 -70 -144 -94 -272 -100
-210 -10 -359 67 -433 225 -25 52 -27 68 -26 172 0 98 4 127 27 193 71 205
218 329 448 377 24 5 96 8 159 6 94 -2 124 -7 165 -25z m2568 4 c27 -10 67
-35 89 -56 44 -41 47 -41 78 12 20 35 74 49 189 49 110 0 111 0 111 -24 0 -39
-36 -204 -102 -467 -41 -165 -59 -255 -54 -273 11 -44 41 -66 91 -66 60 0 101
37 155 141 31 59 45 78 53 70 14 -14 -51 -151 -109 -231 -71 -97 -190 -137
-280 -94 -74 35 -144 149 -144 234 l0 35 -29 -50 c-50 -88 -116 -151 -197
-191 -67 -33 -84 -38 -175 -42 -156 -7 -274 28 -357 107 -85 81 -115 156 -113
288 2 285 179 507 451 568 87 19 277 14 343 -10z m-4263 -575 c0 -5 9 -10 20
-10 11 0 20 -4 20 -10 0 -5 9 -10 20 -10 11 0 20 -4 20 -10 0 -5 9 -10 20 -10
11 0 20 -4 20 -10 0 -5 9 -10 20 -10 11 0 20 -4 20 -10 0 -5 9 -10 20 -10 11
0 20 -4 20 -10 0 -5 9 -10 20 -10 17 0 20 -7 20 -40 l0 -40 -115 0 -116 0 -34
35 c-22 21 -35 44 -35 60 0 14 -4 25 -10 25 -5 0 -10 18 -10 40 l0 40 40 0
c22 0 40 -4 40 -10z m747 -409 c27 -14 37 -48 30 -103 -7 -49 -58 -135 -78
-129 -150 39 -341 -48 -649 -296 -161 -129 -162 -130 -102 -123 115 13 224
-24 314 -108 111 -103 203 -279 342 -652 183 -488 274 -596 464 -548 58 14
124 77 144 139 12 36 19 45 43 47 34 4 104 -21 133 -49 16 -15 22 -31 22 -66
0 -41 -5 -50 -47 -93 -77 -75 -238 -121 -376 -105 -238 28 -484 313 -837 972
-150 279 -209 348 -299 348 -40 0 -56 -7 -114 -48 -37 -26 -67 -50 -67 -52 0
-2 -18 -90 -40 -197 -60 -294 -103 -403 -191 -482 -55 -50 -103 -66 -190 -66
-111 1 -181 50 -210 148 -11 37 -10 45 1 52 10 6 18 1 26 -19 38 -91 170 -77
214 22 12 26 60 288 126 682 96 576 105 642 92 665 -13 25 -33 32 -121 45 -39
6 -49 32 -11 28 10 -1 128 -5 262 -9 232 -7 242 -8 242 -27 0 -30 -45 -224
-115 -501 l-64 -250 111 120 c178 192 408 415 523 507 196 157 323 202 422
148z m5219 -26 c64 -42 84 -142 41 -205 -87 -130 -281 -74 -281 80 1 127 132
196 240 125z m-4717 -96 c95 -20 124 -77 102 -204 -6 -39 -40 -191 -75 -337
l-62 -267 26 22 c15 12 74 60 131 106 185 150 325 190 448 126 68 -35 111
-130 111 -244 0 -93 -22 -174 -87 -331 -45 -106 -57 -147 -58 -189 0 -47 3
-56 27 -74 25 -18 31 -19 69 -8 59 18 102 64 156 167 29 54 53 89 60 87 9 -3
-7 -43 -48 -123 -70 -139 -128 -200 -212 -225 -60 -18 -79 -18 -132 -4 -56 15
-127 91 -151 160 -28 82 -24 219 11 334 63 204 79 311 55 356 -14 25 -59 25
-108 0 -20 -11 -101 -71 -178 -135 l-142 -115 -37 -158 c-20 -87 -51 -216 -69
-288 l-31 -130 -90 -3 c-102 -3 -151 3 -157 21 -3 6 41 278 98 602 146 832
146 835 109 835 -9 0 -12 6 -9 15 5 12 26 15 100 15 51 0 115 -5 143 -11z
m611 -129 c0 -5 18 -10 40 -10 22 0 40 -4 40 -10 0 -5 18 -10 40 -10 22 0 40
-4 40 -10 0 -6 29 -10 66 -10 76 0 94 -12 94 -64 0 -20 5 -36 10 -36 6 0 10
-9 10 -20 0 -11 5 -20 10 -20 6 0 10 -7 10 -15 0 -20 125 -145 145 -145 8 0
15 -4 15 -10 0 -5 9 -10 20 -10 11 0 20 -4 20 -10 0 -5 -8 -10 -17 -10 -10 0
-38 -21 -64 -46 -63 -62 -87 -73 -120 -57 -30 15 -67 53 -83 85 -6 12 -21 28
-34 34 -12 6 -30 17 -39 25 -30 24 -62 39 -82 39 -11 0 -23 5 -26 10 -3 6 -30
10 -60 10 -30 0 -57 5 -60 10 -8 12 -92 13 -99 1 -4 -5 -17 -4 -31 2 -25 12
-25 13 -25 140 0 120 1 127 20 127 11 0 20 5 20 10 0 6 30 10 70 10 40 0 70
-4 70 -10z m1840 0 c0 -5 14 -10 30 -10 17 0 30 -4 30 -10 0 -5 14 -10 31 -10
29 0 31 -2 24 -27 -3 -16 -14 -37 -24 -48 -10 -11 -33 -53 -52 -92 -19 -40
-38 -73 -43 -73 -6 0 -20 -10 -33 -22 -20 -19 -27 -20 -43 -10 -11 7 -51 12
-90 12 -38 0 -70 3 -70 6 0 3 23 27 50 54 28 27 50 56 50 64 0 9 5 16 10 16 6
0 10 8 10 18 0 10 9 24 20 32 11 8 20 25 20 38 0 27 21 52 44 52 9 0 16 5 16
10 0 6 5 10 10 10 6 0 10 -4 10 -10z m485 -52 c-42 -185 -75 -335 -75 -345 0
-10 31 -13 140 -13 l140 0 0 -30 0 -30 -150 0 c-147 0 -150 0 -155 -22 -56
-241 -135 -623 -135 -653 0 -73 51 -109 132 -95 68 13 111 51 157 140 32 60
46 79 54 71 15 -15 -69 -186 -119 -240 -102 -114 -291 -131 -401 -37 -90 77
-95 160 -34 550 23 142 41 265 41 272 0 11 -21 14 -95 14 l-95 0 0 30 0 29
102 3 101 3 17 100 c23 137 55 193 138 246 43 27 53 29 144 29 97 0 98 0 93
-22z m-3325 -282 c0 -25 -4 -48 -10 -51 -5 -3 -10 -39 -10 -80 0 -41 -4 -77
-10 -80 -5 -3 -10 -21 -10 -40 0 -19 -4 -37 -10 -40 -5 -3 -10 -30 -10 -60 0
-30 -4 -57 -10 -60 -5 -3 -10 -15 -10 -26 0 -10 -4 -19 -10 -19 -5 0 -10 8
-10 18 0 10 -9 24 -20 32 -12 8 -20 26 -20 42 0 15 -4 28 -10 28 -5 0 -10 8
-10 18 0 10 -9 24 -20 32 -11 8 -20 21 -20 28 0 8 -13 27 -30 42 -16 15 -30
33 -30 40 0 7 -13 25 -30 40 -16 15 -30 38 -30 50 0 25 22 50 44 50 9 0 16 5
16 10 0 6 9 10 20 10 11 0 20 5 20 10 0 6 9 10 20 10 11 0 20 5 20 10 0 6 33
10 80 10 47 0 80 4 80 10 0 6 5 10 10 10 6 0 10 -20 10 -44z m4553 -10 c50
-24 79 -68 85 -126 8 -91 -57 -167 -152 -177 l-44 -5 -7 44 c-9 63 -44 120
-87 142 -31 18 -41 18 -77 8 -58 -18 -154 -110 -207 -201 -64 -110 -91 -186
-158 -449 l-61 -237 -62 -9 c-64 -9 -178 -1 -203 14 -11 7 -3 71 48 382 35
205 62 395 62 421 0 95 -52 67 -120 -64 -39 -76 -49 -87 -63 -73 -10 10 70
157 105 193 58 59 102 76 205 76 77 0 96 -3 119 -21 49 -36 67 -69 73 -136 l6
-63 21 36 c33 55 139 164 196 200 108 70 233 87 321 45z m-2469 -66 c46 -15
78 -33 108 -60 23 -22 42 -39 43 -38 54 86 82 98 224 98 91 0 111 -3 111 -15
0 -29 -52 -262 -106 -477 -29 -120 -54 -233 -54 -252 0 -74 73 -111 146 -73
39 20 54 38 104 130 28 52 46 75 52 69 14 -14 -87 -206 -137 -261 -50 -55
-105 -80 -171 -81 -105 0 -188 74 -220 199 l-18 70 -27 -46 c-86 -148 -221
-223 -398 -223 -340 0 -513 241 -410 575 46 154 140 265 281 334 102 51 183
69 309 70 71 1 115 -4 163 -19z m3061 -37 c-12 -70 -86 -377 -125 -518 -51
-186 -53 -222 -20 -255 28 -28 88 -26 131 3 27 18 97 128 123 192 2 6 8 6 15
-1 17 -16 -74 -196 -125 -248 -129 -133 -367 -112 -435 38 -29 64 -24 163 21
416 44 245 50 327 24 337 -23 9 -59 -31 -104 -118 -37 -71 -60 -97 -60 -69 0
19 62 134 92 173 58 73 100 85 306 86 l163 1 -6 -37z"/>
<path d="M4062 3425 c-45 -21 -105 -83 -132 -139 -28 -58 -55 -219 -46 -270 4
-20 20 -51 36 -69 28 -32 30 -32 118 -32 84 0 93 2 133 30 86 61 130 163 132
309 1 86 -11 123 -53 161 -28 25 -140 31 -188 10z"/>
<path d="M2760 3431 c-56 -17 -128 -62 -162 -99 -105 -117 -166 -322 -156
-529 3 -76 8 -97 28 -126 39 -57 92 -82 175 -82 110 1 190 52 264 169 78 124
92 171 107 370 14 195 12 206 -38 253 -47 44 -150 64 -218 44z"/>
<path d="M5323 3426 c-184 -58 -304 -287 -306 -586 -1 -89 2 -111 21 -147 38
-72 115 -110 209 -100 106 11 209 102 282 250 48 97 56 139 66 350 l8 144 -39
39 c-61 61 -148 79 -241 50z"/>
<path d="M4014 1776 c-169 -53 -285 -263 -301 -546 -7 -130 5 -181 56 -231 60
-61 149 -75 245 -39 77 29 155 116 213 235 47 97 52 128 68 376 l7 106 -33 38
c-61 69 -156 92 -255 61z"/>
</g>
</svg>
